# xmcd
#
# Track frame offsets:
#	150
#	20627
#	43805
#	64842
#	82245
#	101455
#	123712
#	142160
#	164775
#	188627
#	203285
#	219252
#
# Disc length: 3204 seconds
# Revision: 0
# Processed by: cddbd v1.5.2PL0 Copyright (c) Steve Scherf et al.
# Submitted via: dBpowerAMP V12.0
#
DISCID=b30c820c
DTITLE=Randy Crawford - Through The Eyes Of Love
DYEAR=1992
DGENRE=Soul
TTITLE0=Who's Crying Now
TTITLE1=It's Raining
TTITLE2=When Love Is New
TTITLE3=If I Were (In Your Shoes)
TTITLE4=Rhythm Of Romance
TTITLE5=Shine
TTITLE6=Hold On, Be Strong
TTITLE7=A Lot That You Can Do
TTITLE8=If You'd Only Believe
TTITLE9=Like The Sun Out Of Nowhere
TTITLE10=Just A Touch
TTITLE11=Diamante (Duet With Zucchero)
EXTD=
EXTT0=
EXTT1=
EXTT2=
EXTT3=
EXTT4=
EXTT5=
EXTT6=
EXTT7=
EXTT8=
EXTT9=
EXTT10=
EXTT11=
PLAYORDER=
